<?xml version="1.0" standalone="no"?>
<!DOCTYPE svg PUBLIC "-//W3C//DTD SVG 20010904//EN"
 "http://www.w3.org/TR/2001/REC-SVG-20010904/DTD/svg10.dtd">
<svg version="1.0" xmlns="http://www.w3.org/2000/svg"
 width="60.000000pt" height="60.000000pt" viewBox="0 0 60.000000 60.000000"
 preserveAspectRatio="xMidYMid meet">

<g transform="translate(0.000000,60.000000) scale(0.100000,-0.100000)"
fill="#000000" stroke="none">
<path d="M203 582 c-59 -21 -112 -59 -143 -102 -25 -35 -19 -50 31 -70 21 -9
28 -18 24 -29 -4 -9 -9 -28 -12 -43 -4 -21 -11 -28 -29 -28 -13 0 -24 -4 -24
-10 0 -5 11 -10 24 -10 18 0 25 -7 29 -27 3 -16 8 -35 12 -44 4 -10 -5 -20
-29 -31 l-34 -17 -14 32 c-8 19 -13 66 -12 115 1 60 -2 80 -10 72 -6 -6 -11
-45 -11 -88 1 -126 55 -216 163 -269 81 -40 183 -40 264 0 107 53 163 144 163
267 0 85 -21 142 -74 203 -72 81 -213 117 -318 79z m199 -22 c26 -12 26 -13
10 -47 -11 -23 -21 -32 -31 -28 -9 4 -28 9 -43 12 -21 4 -28 11 -28 29 0 13
-4 24 -10 24 -5 0 -10 -11 -10 -25 0 -18 -5 -25 -19 -25 -11 0 -23 -4 -26 -10
-4 -6 5 -10 19 -10 23 0 26 -4 26 -34 0 -25 -5 -35 -19 -39 -15 -3 -27 11 -59
66 -23 39 -40 73 -37 75 30 31 170 38 227 12z m-229 -59 c17 -29 17 -30 -14
-60 -30 -31 -31 -31 -60 -14 -37 22 -36 29 3 70 39 40 49 41 71 4z m324 -3
c37 -40 69 -101 78 -151 l7 -37 -39 0 c-37 0 -39 2 -50 43 -7 23 -9 43 -5 45
4 1 14 7 22 12 21 13 5 23 -18 11 -17 -9 -26 -6 -51 20 -31 30 -31 31 -14 60
22 37 32 36 70 -3z m-137 -28 c11 -6 17 -17 14 -25 -7 -17 7 -20 22 -5 7 7 18
2 33 -14 l23 -24 -27 -18 c-22 -14 -30 -15 -44 -5 -9 6 -28 17 -43 24 -23 9
-28 18 -28 44 0 35 15 42 50 23z m-130 -76 c0 -8 -4 -14 -9 -14 -5 0 -15 -16
-22 -35 -11 -30 -17 -35 -46 -35 -23 0 -33 5 -33 16 0 23 20 55 30 49 5 -3 11
-1 14 4 4 5 1 13 -5 16 -7 5 -2 16 13 32 l23 24 17 -21 c10 -12 18 -28 18 -36z
m135 -29 c28 -27 34 -81 13 -118 -12 -22 -12 -21 -18 8 -3 20 -15 34 -35 44
-17 8 -38 18 -48 23 -11 5 -21 7 -24 4 -10 -10 9 -26 39 -34 63 -16 63 -74 0
-80 -73 -7 -112 99 -57 153 18 19 35 25 65 25 30 0 47 -6 65 -25z m115 -37 c0
-10 -7 -18 -15 -18 -8 0 -15 -4 -15 -10 0 -5 7 -10 15 -10 18 0 20 -30 3 -53
-12 -16 -15 -16 -38 1 -20 14 -25 25 -25 62 0 37 5 48 25 62 23 17 26 17 38 1
6 -9 12 -25 12 -35z m-287 -57 c3 -12 -4 -23 -24 -35 -27 -16 -29 -16 -39 3
-19 37 -13 51 24 51 24 0 35 -5 39 -19z m382 -17 c-3 -20 -11 -46 -17 -59 -10
-23 -11 -23 -45 -7 -23 11 -32 21 -28 31 4 9 9 28 12 44 5 24 10 27 45 27 l40
0 -7 -36z m-338 -44 c14 -11 32 -20 39 -20 9 0 14 -12 14 -35 0 -37 -14 -44
-50 -25 -13 7 -16 17 -13 32 6 22 5 22 -14 6 -19 -17 -20 -17 -42 6 l-22 24
22 16 c30 21 36 20 66 -4z m193 2 l21 -17 -24 -24 -25 -23 -17 26 c-31 47 1
74 45 38z m-73 -85 l-22 -19 32 6 c22 4 33 1 37 -9 3 -8 10 -15 16 -15 7 0 8
6 0 19 -8 16 -4 25 21 50 30 31 31 31 60 14 37 -22 36 -32 -3 -70 -40 -37
-101 -69 -151 -78 l-37 -7 0 85 c0 73 2 86 18 89 10 2 24 -6 34 -22 17 -24 17
-26 -5 -43z m-198 32 c31 -30 31 -31 14 -60 -10 -16 -22 -29 -27 -29 -14 0
-76 61 -76 75 0 8 44 43 57 45 1 0 15 -14 32 -31z m104 -56 c24 -5 27 -10 27
-45 l0 -40 -36 7 c-20 3 -46 11 -59 17 -23 10 -23 11 -7 45 11 23 21 32 31 28
9 -4 28 -9 44 -12z"/>
<path d="M290 350 c0 -5 5 -10 10 -10 6 0 10 5 10 10 0 6 -4 10 -10 10 -5 0
-10 -4 -10 -10z"/>
<path d="M290 250 c0 -5 5 -10 10 -10 6 0 10 5 10 10 0 6 -4 10 -10 10 -5 0
-10 -4 -10 -10z"/>
</g>
</svg>
